<svg width="94" height="32" viewBox="0 0 94 32" fill="none" xmlns="http://www.w3.org/2000/svg">
<path d="M16.4737 11.5583C15.0753 9.88702 12.9947 8.88428 10.1467 8.88428C4.58721 8.88428 -0.000244141 13.9156 -0.000244141 20.4422C-0.000244141 26.9689 4.58721 32.0002 10.1467 32.0002C12.9947 32.0002 15.0753 30.9975 16.4737 29.3262V31.3845H22.8518V9.5L16.4737 11.5583ZM11.4258 25.7902C8.49251 25.7902 6.37785 23.732 6.37785 20.4422C6.37785 17.1525 8.49251 15.0943 11.4258 15.0943C14.359 15.0943 16.4737 17.1525 16.4737 20.4422C16.4737 23.732 14.359 25.7902 11.4258 25.7902Z" fill="#fff"/>
<path d="M37.1401 15.7974V9.49944H32.7573V6.42084L26.3962 8.39115C26.3962 11.892 26.3962 12.3142 26.3962 15.7974V18.7704V23.5555C26.3962 29.6775 28.8179 32.2635 37.1401 31.3839V25.4378C34.3262 25.6137 32.7573 25.4378 32.7573 23.5555V15.7974H37.1401Z" fill="#fff"/>
<path d="M40.7361 31.3851H47.1142V2.07672L40.7361 4.04703V31.3851Z" fill="#fff"/>
<path d="M83.5464 15.8859C83.5464 15.0943 84.2285 14.6545 85.337 14.6545C86.7354 14.6545 87.5881 15.4461 88.185 16.5896L93.6251 13.5638C91.8345 10.45 88.7819 8.88428 85.337 8.88428C80.9201 8.88428 77.0148 11.2944 77.0148 16.0618C77.0148 23.644 87.4687 22.3774 87.4687 24.7699C87.4687 25.6495 86.7013 26.1421 85.1665 26.1421C83.3076 26.1421 82.1139 25.2097 81.5511 23.556L76.0427 26.793C77.6969 30.3466 80.9201 32.0002 85.1665 32.0002C89.7539 32.0002 94.0003 29.854 94.0003 24.8227C94.0003 16.7127 83.5464 18.384 83.5464 15.8859Z" fill="#fff"/>
<path fill-rule="evenodd" clip-rule="evenodd" d="M11.4212 0C12.9219 0 14.1498 1.26663 14.1498 2.81473C14.1498 4.38042 12.9219 5.64704 11.4212 5.64704C9.90341 5.64704 8.67554 4.38042 8.67554 2.81473C8.67554 1.26663 9.90341 0 11.4212 0Z" fill="#8E3FEE"/>
<path fill-rule="evenodd" clip-rule="evenodd" d="M3.33525 0C4.83598 0 6.06385 1.26663 6.06385 2.81473C6.06385 4.38042 4.83598 5.64704 3.33525 5.64704C1.81747 5.64704 0.5896 4.38042 0.5896 2.81473C0.5896 1.26663 1.81747 0 3.33525 0Z" fill="#4572F8"/>
<path fill-rule="evenodd" clip-rule="evenodd" d="M19.5057 0C21.0235 0 22.2343 1.26663 22.2343 2.81473C22.2343 4.38042 21.0235 5.64704 19.5057 5.64704C17.9879 5.64704 16.7771 4.38042 16.7771 2.81473C16.7771 1.26663 17.9879 0 19.5057 0Z" fill="#D60CE5"/>
<path d="M66.6944 11.5583C65.296 9.88702 63.2154 8.88428 60.3674 8.88428C54.8079 8.88428 50.2205 13.9156 50.2205 20.4422C50.2205 26.9689 54.8079 32.0002 60.3674 32.0002C63.2154 32.0002 65.296 30.9975 66.6944 29.3262V31.3845H73.0725V9.5L66.6944 11.5583ZM61.6465 25.7902C58.7132 25.7902 56.5986 23.732 56.5986 20.4422C56.5986 17.1525 58.7132 15.0943 61.6465 15.0943C64.5797 15.0943 66.6944 17.1525 66.6944 20.4422C66.6944 23.732 64.5797 25.7902 61.6465 25.7902Z" fill="#fff"/>
</svg>
